<?xml version="1.0" encoding="UTF-8" standalone="no"?>
<!-- Created with Inkscape (http://www.inkscape.org/) -->

<svg
   width="11.319998mm"
   height="5.6844296mm"
   viewBox="0 0 11.319997 5.6844296"
   version="1.1"
   id="svg1"
   inkscape:version="1.3.2 (091e20ef0f, 2023-11-25, custom)"
   sodipodi:docname="music_recognition.svg"
   xmlns:inkscape="http://www.inkscape.org/namespaces/inkscape"
   xmlns:sodipodi="http://sodipodi.sourceforge.net/DTD/sodipodi-0.dtd"
   xmlns="http://www.w3.org/2000/svg"
   xmlns:svg="http://www.w3.org/2000/svg">
  <sodipodi:namedview
     id="namedview1"
     pagecolor="#ffffff"
     bordercolor="#000000"
     borderopacity="0.25"
     inkscape:showpageshadow="2"
     inkscape:pageopacity="0.0"
     inkscape:pagecheckerboard="0"
     inkscape:deskcolor="#d1d1d1"
     inkscape:document-units="mm"
     inkscape:zoom="16.157132"
     inkscape:cx="28.532291"
     inkscape:cy="-1.6710886"
     inkscape:window-width="2256"
     inkscape:window-height="1504"
     inkscape:window-x="0"
     inkscape:window-y="0"
     inkscape:window-maximized="1"
     inkscape:current-layer="layer1-3" />
  <defs
     id="defs1">
    <clipPath
       clipPathUnits="userSpaceOnUse"
       id="clipPath2">
      <rect
         style="fill:#000000;stroke-width:92.2997;stroke-dashoffset:4.75411"
         id="rect3"
         width="1870.484"
         height="1128.3308"
         x="988.75385"
         y="-132.7106"
         ry="0"
         rx="0" />
    </clipPath>
    <clipPath
       clipPathUnits="userSpaceOnUse"
       id="clipPath3">
      <rect
         style="fill:#000000;stroke-width:2.64567;stroke-dashoffset:4.75411"
         id="rect4"
         width="53.615402"
         height="32.342384"
         x="43.11702"
         y="67.191498"
         ry="0"
         rx="0" />
    </clipPath>
    <clipPath
       clipPathUnits="userSpaceOnUse"
       id="clipPath3-5">
      <rect
         style="fill:#000000;stroke-width:2.64567;stroke-dashoffset:4.75411"
         id="rect4-3"
         width="53.615402"
         height="32.342384"
         x="43.11702"
         y="67.191498"
         ry="0"
         rx="0" />
    </clipPath>
  </defs>
  <g
     inkscape:label="Layer 1"
     inkscape:groupmode="layer"
     id="layer1"
     transform="translate(-99.077273,-145.06893)">
    <g
       inkscape:label="Layer 1"
       inkscape:groupmode="layer"
       id="layer1-3"
       transform="matrix(0.26458333,0,0,0.26458333,86.487788,125.891)">
      <rect
         fill="#cccccc"
         height="32.342381"
         width="93.822632"
         x="6.8729329"
         y="67.191498"
         id="rect1"
         style="stroke-width:0.0302644"
         clip-path="url(#clipPath3)"
         transform="matrix(0.79798424,0,0,0.66428192,13.175606,27.849415)" />
      <g
         transform="matrix(0.02142476,0,0,0.02142476,27.933203,73.691725)"
         id="g157"
         clip-path="url(#clipPath2)">
        <g
           id="g33">
          <g
             transform="translate(20.510123)"
             id="g5">
            <g
               id="g1">
              <path
                 d="M 55.013992,36.152206 Q 52.115276,25.178513 50.251816,14.411865 48.38836,3.645218 48.38836,-7.5355377 q 0,-9.7313843 1.34583,-18.3240053 1.34583,-8.592607 3.830442,-15.839387 2.691662,-8.282042 7.03973,-15.63234 4.348068,-7.35031 9.213768,-12.112486 4.86569,-4.762174 8.59261,-4.762174 4.96923,0 13.66536,17.599332 4.34807,8.903183 6.41858,19.255738 2.07051,10.352538 2.07051,22.154449 0,14.70060717 -3.933964,29.297699 Q 92.69726,28.69838 85.1399,41.535538 77.58254,54.372696 67.02294,64.10408 l 7.24678,34.78456 q 3.10577,-0.41409 5.17628,-0.62115 2.07051,-0.20705 3.10576,-0.20705 12.63011,0 22.56855,7.14327 9.93844,7.14324 15.83939,18.73809 5.90096,11.59485 5.90096,25.46726 0,15.94293 -8.17852,28.67656 -8.17851,12.73362 -24.535526,18.73811 1.035256,3.51987 6.004476,29.40122 1.2423,6.21155 1.86346,9.83493 0.62115,3.62338 0.8282,6.31506 0.20706,2.69165 0.20706,6.21152 0,10.35254 -5.07276,18.53106 -5.072745,8.1785 -13.66536,12.73362 -8.59261,4.55511 -19.152205,4.55511 -10.766647,0 -19.048687,-4.03748 -8.282036,-4.03747 -13.044208,-11.18075 -4.76217,-7.14325 -4.76217,-16.46054 0,-9.93845 5.48685,-16.56409 5.48685,-6.62561 15.632345,-6.62561 8.696135,0 14.182991,6.31503 5.486844,6.31507 5.486844,15.0112 0,7.45383 -5.176275,13.04422 -5.176269,5.59037 -13.458305,5.59037 h -2.07051 q 5.383323,8.07498 16.97817,8.07498 14.286516,0 22.361505,-9.31728 8.074985,-9.3173 8.074985,-23.81087 0,-3.51986 -0.828205,-9.4208 -0.828201,-5.90097 -2.898715,-14.18299 -2.07051,-8.28204 -3.20929,-13.66537 -1.138775,-5.38333 -1.552876,-7.66089 -7.039734,2.07052 -16.564079,2.07052 -17.806375,0 -34.78455,-10.35256 Q 19.40123,180.8808 9.876888,163.90263 0.35254574,146.92445 0.35254574,127.25461 q 0,-18.63458 8.48908726,-34.991594 Q 17.33072,75.90599 29.857304,62.24063 42.383884,48.57527 55.013992,36.152206 Z m 5.59037,-5.176269 Q 65.36653,28.491333 70.749855,21.762177 76.13318,15.03302 81.1024,6.3368835 86.071625,-2.359253 89.17739,-11.15892 q 3.10577,-8.799668 3.10577,-15.839402 0,-7.453828 -2.27757,-11.801895 -2.277555,-4.348068 -7.86793,-4.348068 -4.969226,0 -9.62787,4.555115 -4.65865,4.555115 -8.28204,12.112488 -3.623388,7.557357 -5.6939,16.874649 -2.0705,9.31729093 -2.0705,19.048675 0,6.625626 1.345824,12.008958 1.345832,5.383315 2.795188,9.524337 z m 11.801903,92.551773 q -5.590375,1.24229 -10.559593,5.27979 -4.969222,4.0375 -7.971462,9.7314 -3.00224,5.69389 -3.00224,12.11247 0,5.17627 2.691662,10.66313 2.691662,5.48685 6.625628,8.79967 2.691667,2.4846 5.383326,3.72691 3.105764,1.44936 3.105764,2.69167 0,0.62113 -2.07051,1.24229 -7.867934,-1.86345 -14.182986,-7.03974 -6.315056,-5.17626 -9.938446,-12.52658 -3.623391,-7.35029 -3.623391,-15.63233 0,-8.9032 3.623391,-17.18523 3.62339,-8.28203 10.145496,-14.90767 6.522102,-6.62563 14.804136,-9.93845 L 61.432564,69.280365 Q 37.41466,88.74315 26.130386,107.48126 q -11.284275,18.7381 -11.284275,37.16564 0,13.45831 7.03973,25.05316 7.03973,11.59486 19.255739,18.73811 12.216002,7.14325 27.53777,7.14325 4.141016,0 8.38556,-0.82822 4.244546,-0.82818 9.006715,-2.07049 z m 20.083939,67.0845 q 20.290996,-8.69613 20.290996,-35.61276 0,-8.9032 -4.55513,-16.25351 -4.55512,-7.35031 -12.216,-11.69836 -7.66088,-4.34809 -17.185226,-4.34809 z"
                 fill="#000000"
                 id="path1" />
            </g>
            <g
               transform="translate(0,400)"
               id="g2">
              <path
                 d="M 0.23335171,144.28595 Q 30.88808,124.34192 44.184105,111.41522 53.048122,102.73587 59.880806,91.563515 66.713486,80.39116 70.68382,68.01847 q 3.97035,-12.372695 3.97035,-24.560714 0,-10.895363 -3.32401,-19.297706 -3.324,-8.40236 -9.602682,-13.20369 Q 55.4488,6.155014 46.769444,6.155014 q -3.324004,0 -6.925011,0.7386628 -3.60101,0.7386779 -7.479016,2.2160032 -7.940685,2.954682 -12.188026,7.663681 -4.247341,4.709015 -4.247341,8.95636 0,1.662003 1.477337,2.400665 1.477335,0.738678 2.770004,0.738678 1.84667,0 4.616676,-0.738678 1.292672,-0.369339 2.493004,-0.554001 1.200337,-0.184661 2.493008,-0.184661 7.017345,0 11.449356,4.154998 4.432005,4.155014 4.432005,10.987694 0,6.648018 -5.540007,11.449356 -5.540013,4.801348 -13.111363,4.801348 -9.048682,0 -15.512029,-5.72468 -6.4633463,-5.724678 -6.4633463,-14.77336 0,-10.895356 6.0940113,-19.390046 6.094014,-8.494675 16.5277,-13.296021 10.43369,-4.80134564 23.175714,-4.80134564 14.03469,0 25.11472,6.09400944 11.080015,6.0940092 17.635695,16.7123722 6.555685,10.618347 6.555685,24.099044 0,17.543377 -9.78735,33.609407 -4.98602,8.31001 -11.35703,15.69669 -6.37101,7.38668 -16.15836,15.05036 -9.787358,7.66368 -24.56072,16.52771 -14.77336,8.86402 -36.748739,19.75937 z M 117.86626,17.60437 q 4.24734,0 7.20201,2.954666 2.95466,2.954682 2.95466,7.202011 0,4.247345 -2.95466,7.109696 -2.95467,2.862335 -7.20201,2.862335 -4.24735,0 -7.20202,-2.862335 -2.95468,-2.862351 -2.95468,-7.109696 0,-4.247329 2.95468,-7.202011 2.95467,-2.954666 7.20202,-2.954666 z m 0,40.626747 q 4.24734,0 7.20201,2.954673 2.95466,2.954675 2.95466,7.20201 0,4.24735 -2.95466,7.10968 -2.95467,2.862345 -7.20201,2.862345 -4.24735,0 -7.20202,-2.862345 -2.95468,-2.86233 -2.95468,-7.10968 0,-4.247335 2.95468,-7.20201 2.95467,-2.954673 7.20202,-2.954673 z"
                 fill="#000000"
                 id="path2" />
            </g>
            <g
               transform="translate(177.78958)"
               id="g3" />
            <g
               transform="translate(177.78958,400)"
               id="g4" />
          </g>
          <g
             transform="translate(368.80983)"
             id="g10">
            <g
               id="g8">
              <path
                 d="m 22.141579,278.19586 q -9.401232,0 -15.3749307,-4.40683 -5.9736986,-4.40683 -5.9736986,-13.41635 0,-9.9888 5.5819807,-17.92108 5.5819806,-7.9323 14.5914946,-12.53497 9.009512,-4.6027 19.194181,-4.6027 8.617794,0 13.710129,4.6027 5.092331,4.60267 5.092331,13.02461 0,9.59709 -5.092331,17.6273 -5.092335,8.03021 -13.41634,12.82876 -8.324009,4.79856 -18.312816,4.79856 z"
                 fill="#000000"
                 id="path5" />
              <path
                 d="m 22.141579,228.19586 q -9.401232,0 -15.3749307,-4.40683 -5.9736986,-4.40683 -5.9736986,-13.41633 0,-9.98882 5.5819807,-17.9211 5.5819806,-7.9323 14.5914946,-12.53497 9.009512,-4.6027 19.194181,-4.6027 8.617794,0 13.710129,4.6027 5.092331,4.60267 5.092331,13.02461 0,9.59709 -5.092331,17.6273 -5.092335,8.03023 -13.41634,12.82877 -8.324009,4.79855 -18.312816,4.79855 z"
                 fill="#000000"
                 id="path6" />
              <path
                 d="m 22.141579,178.19586 q -9.401232,0 -15.3749307,-4.40683 -5.9736986,-4.40683 -5.9736986,-13.41633 0,-9.98882 5.5819807,-17.9211 5.5819806,-7.9323 14.5914946,-12.53497 9.009512,-4.6027 19.194181,-4.6027 8.617794,0 13.710129,4.6027 5.092331,4.60267 5.092331,13.02461 0,9.59709 -5.092331,17.6273 -5.092335,8.03023 -13.41634,12.82877 -8.324009,4.79855 -18.312816,4.79855 z"
                 fill="#000000"
                 id="path7" />
              <line
                 stroke="#000000"
                 stroke-width="5"
                 x1="56.425014"
                 x2="56.425014"
                 y1="245"
                 y2="0"
                 id="line7" />
              <line
                 stroke="#000000"
                 stroke-width="7.5"
                 x1="-10"
                 x2="68.17012"
                 y1="250"
                 y2="250"
                 id="line8" />
            </g>
            <g
               id="g9" />
          </g>
          <g
             transform="translate(447.49007)"
             id="g14">
            <g
               id="g13">
              <path
                 d="m 22.141579,278.19586 q -9.401232,0 -15.3749307,-4.40683 -5.9736986,-4.40683 -5.9736986,-13.41635 0,-9.9888 5.5819807,-17.92108 5.5819806,-7.9323 14.5914946,-12.53497 9.009512,-4.6027 19.194181,-4.6027 8.617794,0 13.710129,4.6027 5.092331,4.60267 5.092331,13.02461 0,9.59709 -5.092331,17.6273 -5.092335,8.03021 -13.41634,12.82876 -8.324009,4.79856 -18.312816,4.79856 z"
                 fill="#000000"
                 id="path10" />
              <path
                 d="m 22.141579,228.19586 q -9.401232,0 -15.3749307,-4.40683 -5.9736986,-4.40683 -5.9736986,-13.41633 0,-9.98882 5.5819807,-17.9211 5.5819806,-7.9323 14.5914946,-12.53497 9.009512,-4.6027 19.194181,-4.6027 8.617794,0 13.710129,4.6027 5.092331,4.60267 5.092331,13.02461 0,9.59709 -5.092331,17.6273 -5.092335,8.03023 -13.41634,12.82877 -8.324009,4.79855 -18.312816,4.79855 z"
                 fill="#000000"
                 id="path11" />
              <path
                 d="m 22.141579,178.19586 q -9.401232,0 -15.3749307,-4.40683 -5.9736986,-4.40683 -5.9736986,-13.41633 0,-9.98882 5.5819807,-17.9211 5.5819806,-7.9323 14.5914946,-12.53497 9.009512,-4.6027 19.194181,-4.6027 8.617794,0 13.710129,4.6027 5.092331,4.60267 5.092331,13.02461 0,9.59709 -5.092331,17.6273 -5.092335,8.03023 -13.41634,12.82877 -8.324009,4.79855 -18.312816,4.79855 z"
                 fill="#000000"
                 id="path12" />
              <line
                 stroke="#000000"
                 stroke-width="5"
                 x1="56.425014"
                 x2="56.425014"
                 y1="245"
                 y2="0"
                 id="line12" />
              <line
                 stroke="#000000"
                 stroke-width="7.5"
                 x1="-10"
                 x2="68.17012"
                 y1="250"
                 y2="250"
                 id="line13" />
            </g>
          </g>
          <g
             transform="translate(526.1703)"
             id="g18">
            <g
               id="g17">
              <path
                 d="m 22.141579,278.19586 q -9.401232,0 -15.3749307,-4.40683 -5.9736986,-4.40683 -5.9736986,-13.41635 0,-9.9888 5.5819807,-17.92108 5.5819806,-7.9323 14.5914946,-12.53497 9.009512,-4.6027 19.194181,-4.6027 8.617794,0 13.710129,4.6027 5.092331,4.60267 5.092331,13.02461 0,9.59709 -5.092331,17.6273 -5.092335,8.03021 -13.41634,12.82876 -8.324009,4.79856 -18.312816,4.79856 z"
                 fill="#000000"
                 id="path14" />
              <path
                 d="m 22.141579,228.19586 q -9.401232,0 -15.3749307,-4.40683 -5.9736986,-4.40683 -5.9736986,-13.41633 0,-9.98882 5.5819807,-17.9211 5.5819806,-7.9323 14.5914946,-12.53497 9.009512,-4.6027 19.194181,-4.6027 8.617794,0 13.710129,4.6027 5.092331,4.60267 5.092331,13.02461 0,9.59709 -5.092331,17.6273 -5.092335,8.03023 -13.41634,12.82877 -8.324009,4.79855 -18.312816,4.79855 z"
                 fill="#000000"
                 id="path15" />
              <path
                 d="m 22.141579,178.19586 q -9.401232,0 -15.3749307,-4.40683 -5.9736986,-4.40683 -5.9736986,-13.41633 0,-9.98882 5.5819807,-17.9211 5.5819806,-7.9323 14.5914946,-12.53497 9.009512,-4.6027 19.194181,-4.6027 8.617794,0 13.710129,4.6027 5.092331,4.60267 5.092331,13.02461 0,9.59709 -5.092331,17.6273 -5.092335,8.03023 -13.41634,12.82877 -8.324009,4.79855 -18.312816,4.79855 z"
                 fill="#000000"
                 id="path16" />
              <line
                 stroke="#000000"
                 stroke-width="5"
                 x1="56.425014"
                 x2="56.425014"
                 y1="245"
                 y2="0"
                 id="line16" />
              <line
                 stroke="#000000"
                 stroke-width="7.5"
                 x1="-10"
                 x2="68.17012"
                 y1="250"
                 y2="250"
                 id="line17" />
            </g>
          </g>
          <g
             transform="translate(604.85054)"
             id="g22">
            <g
               id="g21">
              <path
                 d="m 22.141579,278.19586 q -9.401232,0 -15.3749307,-4.40683 -5.9736986,-4.40683 -5.9736986,-13.41635 0,-9.9888 5.5819807,-17.92108 5.5819806,-7.9323 14.5914946,-12.53497 9.009512,-4.6027 19.194181,-4.6027 8.617794,0 13.710129,4.6027 5.092331,4.60267 5.092331,13.02461 0,9.59709 -5.092331,17.6273 -5.092335,8.03021 -13.41634,12.82876 -8.324009,4.79856 -18.312816,4.79856 z"
                 fill="#000000"
                 id="path18" />
              <path
                 d="m 22.141579,228.19586 q -9.401232,0 -15.3749307,-4.40683 -5.9736986,-4.40683 -5.9736986,-13.41633 0,-9.98882 5.5819807,-17.9211 5.5819806,-7.9323 14.5914946,-12.53497 9.009512,-4.6027 19.194181,-4.6027 8.617794,0 13.710129,4.6027 5.092331,4.60267 5.092331,13.02461 0,9.59709 -5.092331,17.6273 -5.092335,8.03023 -13.41634,12.82877 -8.324009,4.79855 -18.312816,4.79855 z"
                 fill="#000000"
                 id="path19" />
              <path
                 d="m 22.141579,178.19586 q -9.401232,0 -15.3749307,-4.40683 -5.9736986,-4.40683 -5.9736986,-13.41633 0,-9.98882 5.5819807,-17.9211 5.5819806,-7.9323 14.5914946,-12.53497 9.009512,-4.6027 19.194181,-4.6027 8.617794,0 13.710129,4.6027 5.092331,4.60267 5.092331,13.02461 0,9.59709 -5.092331,17.6273 -5.092335,8.03023 -13.41634,12.82877 -8.324009,4.79855 -18.312816,4.79855 z"
                 fill="#000000"
                 id="path20" />
              <line
                 stroke="#000000"
                 stroke-width="5"
                 x1="56.425014"
                 x2="56.425014"
                 y1="245"
                 y2="0"
                 id="line20" />
              <line
                 stroke="#000000"
                 stroke-width="7.5"
                 x1="-10"
                 x2="68.17012"
                 y1="250"
                 y2="250"
                 id="line21" />
            </g>
          </g>
          <g
             transform="translate(683.53078)"
             id="g26">
            <g
               id="g25">
              <path
                 d="m 22.141579,278.19586 q -9.401232,0 -15.3749307,-4.40683 -5.9736986,-4.40683 -5.9736986,-13.41635 0,-9.9888 5.5819807,-17.92108 5.5819806,-7.9323 14.5914946,-12.53497 9.009512,-4.6027 19.194181,-4.6027 8.617794,0 13.710129,4.6027 5.092331,4.60267 5.092331,13.02461 0,9.59709 -5.092331,17.6273 -5.092335,8.03021 -13.41634,12.82876 -8.324009,4.79856 -18.312816,4.79856 z"
                 fill="#000000"
                 id="path22" />
              <path
                 d="m 22.141579,228.19586 q -9.401232,0 -15.3749307,-4.40683 -5.9736986,-4.40683 -5.9736986,-13.41633 0,-9.98882 5.5819807,-17.9211 5.5819806,-7.9323 14.5914946,-12.53497 9.009512,-4.6027 19.194181,-4.6027 8.617794,0 13.710129,4.6027 5.092331,4.60267 5.092331,13.02461 0,9.59709 -5.092331,17.6273 -5.092335,8.03023 -13.41634,12.82877 -8.324009,4.79855 -18.312816,4.79855 z"
                 fill="#000000"
                 id="path23" />
              <path
                 d="m 22.141579,178.19586 q -9.401232,0 -15.3749307,-4.40683 -5.9736986,-4.40683 -5.9736986,-13.41633 0,-9.98882 5.5819807,-17.9211 5.5819806,-7.9323 14.5914946,-12.53497 9.009512,-4.6027 19.194181,-4.6027 8.617794,0 13.710129,4.6027 5.092331,4.60267 5.092331,13.02461 0,9.59709 -5.092331,17.6273 -5.092335,8.03023 -13.41634,12.82877 -8.324009,4.79855 -18.312816,4.79855 z"
                 fill="#000000"
                 id="path24" />
              <line
                 stroke="#000000"
                 stroke-width="5"
                 x1="56.425014"
                 x2="56.425014"
                 y1="245"
                 y2="0"
                 id="line24" />
              <line
                 stroke="#000000"
                 stroke-width="7.5"
                 x1="-10"
                 x2="68.17012"
                 y1="250"
                 y2="250"
                 id="line25" />
            </g>
          </g>
          <g
             transform="translate(762.21102)"
             id="g30">
            <g
               id="g29">
              <path
                 d="m 22.141579,278.19586 q -9.401232,0 -15.3749307,-4.40683 -5.9736986,-4.40683 -5.9736986,-13.41635 0,-9.9888 5.5819807,-17.92108 5.5819806,-7.9323 14.5914946,-12.53497 9.009512,-4.6027 19.194181,-4.6027 8.617794,0 13.710129,4.6027 5.092331,4.60267 5.092331,13.02461 0,9.59709 -5.092331,17.6273 -5.092335,8.03021 -13.41634,12.82876 -8.324009,4.79856 -18.312816,4.79856 z"
                 fill="#000000"
                 id="path26" />
              <path
                 d="m 22.141579,228.19586 q -9.401232,0 -15.3749307,-4.40683 -5.9736986,-4.40683 -5.9736986,-13.41633 0,-9.98882 5.5819807,-17.9211 5.5819806,-7.9323 14.5914946,-12.53497 9.009512,-4.6027 19.194181,-4.6027 8.617794,0 13.710129,4.6027 5.092331,4.60267 5.092331,13.02461 0,9.59709 -5.092331,17.6273 -5.092335,8.03023 -13.41634,12.82877 -8.324009,4.79855 -18.312816,4.79855 z"
                 fill="#000000"
                 id="path27" />
              <path
                 d="m 22.141579,178.19586 q -9.401232,0 -15.3749307,-4.40683 -5.9736986,-4.40683 -5.9736986,-13.41633 0,-9.98882 5.5819807,-17.9211 5.5819806,-7.9323 14.5914946,-12.53497 9.009512,-4.6027 19.194181,-4.6027 8.617794,0 13.710129,4.6027 5.092331,4.60267 5.092331,13.02461 0,9.59709 -5.092331,17.6273 -5.092335,8.03023 -13.41634,12.82877 -8.324009,4.79855 -18.312816,4.79855 z"
                 fill="#000000"
                 id="path28" />
              <line
                 stroke="#000000"
                 stroke-width="5"
                 x1="56.425014"
                 x2="56.425014"
                 y1="245"
                 y2="0"
                 id="line28" />
              <line
                 stroke="#000000"
                 stroke-width="7.5"
                 x1="-10"
                 x2="68.17012"
                 y1="250"
                 y2="250"
                 id="line29" />
            </g>
          </g>
          <g
             transform="translate(840.89126)"
             id="g31">
            <line
               stroke="#000000"
               stroke-width="8"
               x1="0"
               x2="0"
               y1="0"
               y2="600"
               id="line30" />
          </g>
          <g
             id="g32">
            <line
               stroke="#000000"
               stroke-width="22.5"
               x1="422.73483"
               x2="821.13605"
               y1="0"
               y2="0"
               id="line31" />
          </g>
        </g>
        <g
           transform="translate(848.89126)"
           id="g63">
          <g
             transform="translate(20.510123)"
             id="g38">
            <g
               id="g36">
              <path
                 d="m 22.141579,278.19586 q -9.401232,0 -15.3749307,-4.40683 -5.9736986,-4.40683 -5.9736986,-13.41635 0,-9.9888 5.5819807,-17.92108 5.5819806,-7.9323 14.5914946,-12.53497 9.009512,-4.6027 19.194181,-4.6027 8.617794,0 13.710129,4.6027 5.092331,4.60267 5.092331,13.02461 0,9.59709 -5.092331,17.6273 -5.092335,8.03021 -13.41634,12.82876 -8.324009,4.79856 -18.312816,4.79856 z"
                 fill="#000000"
                 id="path33" />
              <path
                 d="m 22.141579,228.19586 q -9.401232,0 -15.3749307,-4.40683 -5.9736986,-4.40683 -5.9736986,-13.41633 0,-9.98882 5.5819807,-17.9211 5.5819806,-7.9323 14.5914946,-12.53497 9.009512,-4.6027 19.194181,-4.6027 8.617794,0 13.710129,4.6027 5.092331,4.60267 5.092331,13.02461 0,9.59709 -5.092331,17.6273 -5.092335,8.03023 -13.41634,12.82877 -8.324009,4.79855 -18.312816,4.79855 z"
                 fill="#000000"
                 id="path34" />
              <path
                 d="m 22.141579,178.19586 q -9.401232,0 -15.3749307,-4.40683 -5.9736986,-4.40683 -5.9736986,-13.41633 0,-9.98882 5.5819807,-17.9211 5.5819806,-7.9323 14.5914946,-12.53497 9.009512,-4.6027 19.194181,-4.6027 8.617794,0 13.710129,4.6027 5.092331,4.60267 5.092331,13.02461 0,9.59709 -5.092331,17.6273 -5.092335,8.03023 -13.41634,12.82877 -8.324009,4.79855 -18.312816,4.79855 z"
                 fill="#000000"
                 id="path35" />
              <line
                 stroke="#000000"
                 stroke-width="5"
                 x1="56.425014"
                 x2="56.425014"
                 y1="245"
                 y2="0"
                 id="line35" />
              <line
                 stroke="#000000"
                 stroke-width="7.5"
                 x1="-10"
                 x2="68.17012"
                 y1="250"
                 y2="250"
                 id="line36" />
            </g>
            <g
               id="g37" />
          </g>
          <g
             transform="translate(99.190362)"
             id="g42">
            <g
               id="g41">
              <path
                 d="m 22.141579,278.19586 q -9.401232,0 -15.3749307,-4.40683 -5.9736986,-4.40683 -5.9736986,-13.41635 0,-9.9888 5.5819807,-17.92108 5.5819806,-7.9323 14.5914946,-12.53497 9.009512,-4.6027 19.194181,-4.6027 8.617794,0 13.710129,4.6027 5.092331,4.60267 5.092331,13.02461 0,9.59709 -5.092331,17.6273 -5.092335,8.03021 -13.41634,12.82876 -8.324009,4.79856 -18.312816,4.79856 z"
                 fill="#000000"
                 id="path38" />
              <path
                 d="m 22.141579,228.19586 q -9.401232,0 -15.3749307,-4.40683 -5.9736986,-4.40683 -5.9736986,-13.41633 0,-9.98882 5.5819807,-17.9211 5.5819806,-7.9323 14.5914946,-12.53497 9.009512,-4.6027 19.194181,-4.6027 8.617794,0 13.710129,4.6027 5.092331,4.60267 5.092331,13.02461 0,9.59709 -5.092331,17.6273 -5.092335,8.03023 -13.41634,12.82877 -8.324009,4.79855 -18.312816,4.79855 z"
                 fill="#000000"
                 id="path39" />
              <path
                 d="m 22.141579,178.19586 q -9.401232,0 -15.3749307,-4.40683 -5.9736986,-4.40683 -5.9736986,-13.41633 0,-9.98882 5.5819807,-17.9211 5.5819806,-7.9323 14.5914946,-12.53497 9.009512,-4.6027 19.194181,-4.6027 8.617794,0 13.710129,4.6027 5.092331,4.60267 5.092331,13.02461 0,9.59709 -5.092331,17.6273 -5.092335,8.03023 -13.41634,12.82877 -8.324009,4.79855 -18.312816,4.79855 z"
                 fill="#000000"
                 id="path40" />
              <line
                 stroke="#000000"
                 stroke-width="5"
                 x1="56.425014"
                 x2="56.425014"
                 y1="245"
                 y2="0"
                 id="line40" />
              <line
                 stroke="#000000"
                 stroke-width="7.5"
                 x1="-10"
                 x2="68.17012"
                 y1="250"
                 y2="250"
                 id="line41" />
            </g>
          </g>
          <g
             transform="translate(177.8706)"
             id="g46">
            <g
               id="g45">
              <path
                 d="m 22.141579,278.19586 q -9.401232,0 -15.3749307,-4.40683 -5.9736986,-4.40683 -5.9736986,-13.41635 0,-9.9888 5.5819807,-17.92108 5.5819806,-7.9323 14.5914946,-12.53497 9.009512,-4.6027 19.194181,-4.6027 8.617794,0 13.710129,4.6027 5.092331,4.60267 5.092331,13.02461 0,9.59709 -5.092331,17.6273 -5.092335,8.03021 -13.41634,12.82876 -8.324009,4.79856 -18.312816,4.79856 z"
                 fill="#000000"
                 id="path42" />
              <path
                 d="m 22.141579,228.19586 q -9.401232,0 -15.3749307,-4.40683 -5.9736986,-4.40683 -5.9736986,-13.41633 0,-9.98882 5.5819807,-17.9211 5.5819806,-7.9323 14.5914946,-12.53497 9.009512,-4.6027 19.194181,-4.6027 8.617794,0 13.710129,4.6027 5.092331,4.60267 5.092331,13.02461 0,9.59709 -5.092331,17.6273 -5.092335,8.03023 -13.41634,12.82877 -8.324009,4.79855 -18.312816,4.79855 z"
                 fill="#000000"
                 id="path43" />
              <path
                 d="m 22.141579,178.19586 q -9.401232,0 -15.3749307,-4.40683 -5.9736986,-4.40683 -5.9736986,-13.41633 0,-9.98882 5.5819807,-17.9211 5.5819806,-7.9323 14.5914946,-12.53497 9.009512,-4.6027 19.194181,-4.6027 8.617794,0 13.710129,4.6027 5.092331,4.60267 5.092331,13.02461 0,9.59709 -5.092331,17.6273 -5.092335,8.03023 -13.41634,12.82877 -8.324009,4.79855 -18.312816,4.79855 z"
                 fill="#000000"
                 id="path44" />
              <line
                 stroke="#000000"
                 stroke-width="5"
                 x1="56.425014"
                 x2="56.425014"
                 y1="245"
                 y2="0"
                 id="line44" />
              <line
                 stroke="#000000"
                 stroke-width="7.5"
                 x1="-10"
                 x2="68.17012"
                 y1="250"
                 y2="250"
                 id="line45" />
            </g>
          </g>
          <g
             transform="translate(256.55084)"
             id="g50">
            <g
               id="g49">
              <path
                 d="m 22.141579,278.19586 q -9.401232,0 -15.3749307,-4.40683 -5.9736986,-4.40683 -5.9736986,-13.41635 0,-9.9888 5.5819807,-17.92108 5.5819806,-7.9323 14.5914946,-12.53497 9.009512,-4.6027 19.194181,-4.6027 8.617794,0 13.710129,4.6027 5.092331,4.60267 5.092331,13.02461 0,9.59709 -5.092331,17.6273 -5.092335,8.03021 -13.41634,12.82876 -8.324009,4.79856 -18.312816,4.79856 z"
                 fill="#000000"
                 id="path46" />
              <path
                 d="m 22.141579,228.19586 q -9.401232,0 -15.3749307,-4.40683 -5.9736986,-4.40683 -5.9736986,-13.41633 0,-9.98882 5.5819807,-17.9211 5.5819806,-7.9323 14.5914946,-12.53497 9.009512,-4.6027 19.194181,-4.6027 8.617794,0 13.710129,4.6027 5.092331,4.60267 5.092331,13.02461 0,9.59709 -5.092331,17.6273 -5.092335,8.03023 -13.41634,12.82877 -8.324009,4.79855 -18.312816,4.79855 z"
                 fill="#000000"
                 id="path47" />
              <path
                 d="m 22.141579,178.19586 q -9.401232,0 -15.3749307,-4.40683 -5.9736986,-4.40683 -5.9736986,-13.41633 0,-9.98882 5.5819807,-17.9211 5.5819806,-7.9323 14.5914946,-12.53497 9.009512,-4.6027 19.194181,-4.6027 8.617794,0 13.710129,4.6027 5.092331,4.60267 5.092331,13.02461 0,9.59709 -5.092331,17.6273 -5.092335,8.03023 -13.41634,12.82877 -8.324009,4.79855 -18.312816,4.79855 z"
                 fill="#000000"
                 id="path48" />
              <line
                 stroke="#000000"
                 stroke-width="5"
                 x1="56.425014"
                 x2="56.425014"
                 y1="245"
                 y2="0"
                 id="line48" />
              <line
                 stroke="#000000"
                 stroke-width="7.5"
                 x1="-10"
                 x2="68.17012"
                 y1="250"
                 y2="250"
                 id="line49" />
            </g>
          </g>
          <g
             transform="translate(335.23108)"
             id="g55">
            <g
               id="g54">
              <path
                 d="m 22.141579,303.19586 q -9.401232,0 -15.3749307,-4.40683 -5.9736986,-4.40683 -5.9736986,-13.41635 0,-9.9888 5.5819807,-17.92108 5.5819806,-7.93228 14.5914946,-12.53497 9.009512,-4.6027 19.194181,-4.6027 8.617794,0 13.710129,4.6027 5.092331,4.60269 5.092331,13.02462 0,9.59708 -5.092331,17.62729 -5.092335,8.03021 -13.41634,12.82876 -8.324009,4.79856 -18.312816,4.79856 z"
                 fill="#000000"
                 id="path50" />
              <path
                 d="m 22.141579,253.19586 q -9.401232,0 -15.3749307,-4.40683 -5.9736986,-4.40683 -5.9736986,-13.41633 0,-9.98882 5.5819807,-17.9211 5.5819806,-7.9323 14.5914946,-12.53497 9.009512,-4.6027 19.194181,-4.6027 8.617794,0 13.710129,4.6027 5.092331,4.60267 5.092331,13.02461 0,9.59709 -5.092331,17.6273 -5.092335,8.03023 -13.41634,12.82877 -8.324009,4.79855 -18.312816,4.79855 z"
                 fill="#000000"
                 id="path51" />
              <path
                 d="m 77.81169,228.19586 q -9.40123,0 -15.374926,-4.40683 -5.973698,-4.40683 -5.973698,-13.41633 0,-9.98882 5.581982,-17.9211 5.581982,-7.9323 14.591492,-12.53497 9.00952,-4.6027 19.19418,-4.6027 8.6178,0 13.71013,4.6027 5.09233,4.60267 5.09233,13.02461 0,9.59709 -5.09233,17.6273 -5.09233,8.03023 -13.41634,12.82877 -8.324,4.79855 -18.31282,4.79855 z"
                 fill="#000000"
                 id="path52" />
              <path
                 d="m 22.141579,178.19586 q -9.401232,0 -15.3749307,-4.40683 -5.9736986,-4.40683 -5.9736986,-13.41633 0,-9.98882 5.5819807,-17.9211 5.5819806,-7.9323 14.5914946,-12.53497 9.009512,-4.6027 19.194181,-4.6027 8.617794,0 13.710129,4.6027 5.092331,4.60267 5.092331,13.02461 0,9.59709 -5.092331,17.6273 -5.092335,8.03023 -13.41634,12.82877 -8.324009,4.79855 -18.312816,4.79855 z"
                 fill="#000000"
                 id="path53" />
              <line
                 stroke="#000000"
                 stroke-width="5"
                 x1="56.425014"
                 x2="56.425014"
                 y1="270"
                 y2="0"
                 id="line53" />
              <line
                 stroke="#000000"
                 stroke-width="7.5"
                 x1="-10"
                 x2="68.17012"
                 y1="250"
                 y2="250"
                 id="line54" />
            </g>
          </g>
          <g
             transform="translate(469.58143)"
             id="g60">
            <g
               id="g59">
              <path
                 d="m 22.141579,303.19586 q -9.401232,0 -15.3749307,-4.40683 -5.9736986,-4.40683 -5.9736986,-13.41635 0,-9.9888 5.5819807,-17.92108 5.5819806,-7.93228 14.5914946,-12.53497 9.009512,-4.6027 19.194181,-4.6027 8.617794,0 13.710129,4.6027 5.092331,4.60269 5.092331,13.02462 0,9.59708 -5.092331,17.62729 -5.092335,8.03021 -13.41634,12.82876 -8.324009,4.79856 -18.312816,4.79856 z"
                 fill="#000000"
                 id="path55" />
              <path
                 d="m 22.141579,253.19586 q -9.401232,0 -15.3749307,-4.40683 -5.9736986,-4.40683 -5.9736986,-13.41633 0,-9.98882 5.5819807,-17.9211 5.5819806,-7.9323 14.5914946,-12.53497 9.009512,-4.6027 19.194181,-4.6027 8.617794,0 13.710129,4.6027 5.092331,4.60267 5.092331,13.02461 0,9.59709 -5.092331,17.6273 -5.092335,8.03023 -13.41634,12.82877 -8.324009,4.79855 -18.312816,4.79855 z"
                 fill="#000000"
                 id="path56" />
              <path
                 d="m 77.81169,228.19586 q -9.40123,0 -15.374926,-4.40683 -5.973698,-4.40683 -5.973698,-13.41633 0,-9.98882 5.581982,-17.9211 5.581982,-7.9323 14.591492,-12.53497 9.00952,-4.6027 19.19418,-4.6027 8.6178,0 13.71013,4.6027 5.09233,4.60267 5.09233,13.02461 0,9.59709 -5.09233,17.6273 -5.09233,8.03023 -13.41634,12.82877 -8.324,4.79855 -18.31282,4.79855 z"
                 fill="#000000"
                 id="path57" />
              <path
                 d="m 22.141579,178.19586 q -9.401232,0 -15.3749307,-4.40683 -5.9736986,-4.40683 -5.9736986,-13.41633 0,-9.98882 5.5819807,-17.9211 5.5819806,-7.9323 14.5914946,-12.53497 9.009512,-4.6027 19.194181,-4.6027 8.617794,0 13.710129,4.6027 5.092331,4.60267 5.092331,13.02461 0,9.59709 -5.092331,17.6273 -5.092335,8.03023 -13.41634,12.82877 -8.324009,4.79855 -18.312816,4.79855 z"
                 fill="#000000"
                 id="path58" />
              <line
                 stroke="#000000"
                 stroke-width="5"
                 x1="56.425014"
                 x2="56.425014"
                 y1="270"
                 y2="0"
                 id="line58" />
              <line
                 stroke="#000000"
                 stroke-width="7.5"
                 x1="-10"
                 x2="68.17012"
                 y1="250"
                 y2="250"
                 id="line59" />
            </g>
          </g>
          <g
             transform="translate(603.93179)"
             id="g61">
            <line
               stroke="#000000"
               stroke-width="8"
               x1="0"
               x2="0"
               y1="0"
               y2="600"
               id="line60" />
          </g>
          <g
             id="g62">
            <line
               stroke="#000000"
               stroke-width="22.5"
               x1="74.435135"
               x2="528.50647"
               y1="0"
               y2="0"
               id="line61" />
          </g>
        </g>
        <g
           transform="translate(1460.823)"
           id="g104">
          <g
             transform="translate(20.510123)"
             id="g76">
            <g
               id="g68">
              <path
                 d="m 32.10241,367.5294 v 97.66365 H 26.464466 V 426.6368 L 0.09345341,433.36597 V 336.61163 H 6.095132 v 37.64691 z m -5.274205,42.1936 v -23.27924 l -21.096811,5.2742 v 23.09738 z"
                 fill="#000000"
                 id="path63" />
              <path
                 d="m 69.150536,428.19586 q -9.40123,0 -15.374932,-4.40683 -5.973697,-4.40683 -5.973697,-13.41635 0,-9.9888 5.581983,-17.92108 5.581976,-7.93228 14.59149,-12.53497 9.00951,-4.6027 19.19418,-4.6027 8.61779,0 13.71013,4.6027 5.09233,4.60269 5.09233,13.02462 0,9.59708 -5.09233,17.62729 -5.09234,8.03021 -13.41634,12.82876 -8.32401,4.79856 -18.312814,4.79856 z"
                 fill="#000000"
                 id="path64" />
              <path
                 d="m 69.150536,378.19586 q -9.40123,0 -15.374932,-4.40683 -5.973697,-4.40683 -5.973697,-13.41635 0,-9.9888 5.581983,-17.92108 5.581976,-7.93228 14.59149,-12.53497 9.00951,-4.6027 19.19418,-4.6027 8.61779,0 13.71013,4.6027 5.09233,4.60269 5.09233,13.02462 0,9.59708 -5.09233,17.62729 -5.09234,8.03021 -13.41634,12.82876 -8.32401,4.79856 -18.312814,4.79856 z"
                 fill="#000000"
                 id="path65" />
              <path
                 d="m 69.150536,228.19586 q -9.40123,0 -15.374932,-4.40683 -5.973697,-4.40683 -5.973697,-13.41633 0,-9.98882 5.581983,-17.9211 5.581976,-7.9323 14.59149,-12.53497 9.00951,-4.6027 19.19418,-4.6027 8.61779,0 13.71013,4.6027 5.09233,4.60267 5.09233,13.02461 0,9.59709 -5.09233,17.6273 -5.09234,8.03023 -13.41634,12.82877 -8.32401,4.79855 -18.312814,4.79855 z"
                 fill="#000000"
                 id="path66" />
              <path
                 d="m 69.150536,178.19586 q -9.40123,0 -15.374932,-4.40683 -5.973697,-4.40683 -5.973697,-13.41633 0,-9.98882 5.581983,-17.9211 5.581976,-7.9323 14.59149,-12.53497 9.00951,-4.6027 19.19418,-4.6027 8.61779,0 13.71013,4.6027 5.09233,4.60267 5.09233,13.02461 0,9.59709 -5.09233,17.6273 -5.09234,8.03023 -13.41634,12.82877 -8.32401,4.79855 -18.312814,4.79855 z"
                 fill="#000000"
                 id="path67" />
              <line
                 stroke="#000000"
                 stroke-width="5"
                 x1="103.43397"
                 x2="103.43397"
                 y1="395"
                 y2="0"
                 id="line67" />
              <line
                 stroke="#000000"
                 stroke-width="7.5"
                 x1="37.008957"
                 x2="115.17908"
                 y1="350"
                 y2="350"
                 id="line68" />
            </g>
            <g
               transform="translate(47.008957)"
               id="g75">
              <path
                 d="m 22.141579,828.19586 q -9.401232,0 -15.3749307,-4.4068 -5.9736986,-4.40686 -5.9736986,-13.41636 0,-9.9888 5.5819807,-17.9211 5.5819806,-7.9323 14.5914946,-12.535 9.009512,-4.60264 19.194181,-4.60264 8.617794,0 13.710129,4.60264 5.092331,4.6027 5.092331,13.0246 0,9.5971 -5.092331,17.62734 -5.092335,8.03021 -13.41634,12.8288 -8.324009,4.79852 -18.312816,4.79852 z M 6.0811415,815.0733 q 0,1.9586 1.4689435,3.52545 1.468941,1.5669 4.015108,1.5669 6.855065,0 17.039734,-5.67995 6.855063,-3.91716 12.437043,-8.7157 5.58198,-4.79856 8.911586,-9.5971 3.329601,-4.7985 3.329601,-8.12816 0,-2.15444 -1.077224,-3.62334 -1.077225,-1.46895 -3.819249,-1.46895 -3.721321,0 -9.009514,2.35028 -5.288192,2.35037 -11.066032,6.07167 -5.777841,3.7213 -10.870174,8.1281 -5.092335,4.40686 -8.226078,8.5199 -3.1337445,4.11304 -3.1337445,7.0509 z"
                 fill="#000000"
                 id="path68" />
              <path
                 d="m 68.547844,805.8926 q 3.637386,0 6.092616,2.63706 2.45523,2.63709 2.45523,5.91074 0,3.27365 -2.45523,5.91074 -2.45523,2.63706 -6.092616,2.63706 -3.637384,0 -6.092614,-2.63706 Q 60,817.71405 60,814.4404 q 0,-3.27365 2.45523,-5.91074 2.45523,-2.63706 6.092614,-2.63706 z"
                 fill="#000000"
                 id="path69" />
              <path
                 d="m 22.141579,653.19586 q -9.401232,0 -15.3749307,-4.4068 -5.9736986,-4.40686 -5.9736986,-13.41636 0,-9.9888 5.5819807,-17.9211 5.5819806,-7.9323 14.5914946,-12.535 9.009512,-4.60264 19.194181,-4.60264 8.617794,0 13.710129,4.60264 5.092331,4.6027 5.092331,13.0246 0,9.5971 -5.092331,17.62734 -5.092335,8.03021 -13.41634,12.8288 -8.324009,4.79852 -18.312816,4.79852 z M 6.0811415,640.0733 q 0,1.9586 1.4689435,3.52545 1.468941,1.5669 4.015108,1.5669 6.855065,0 17.039734,-5.67995 6.855063,-3.91716 12.437043,-8.7157 5.58198,-4.79856 8.911586,-9.5971 3.329601,-4.7985 3.329601,-8.12816 0,-2.15444 -1.077224,-3.62334 -1.077225,-1.46895 -3.819249,-1.46895 -3.721321,0 -9.009514,2.35028 -5.288192,2.35037 -11.066032,6.07167 -5.777841,3.7213 -10.870174,8.1281 -5.092335,4.40686 -8.226078,8.5199 -3.1337445,4.11304 -3.1337445,7.0509 z"
                 fill="#000000"
                 id="path70" />
              <path
                 d="m 68.547844,630.8926 q 3.637386,0 6.092616,2.63706 2.45523,2.63709 2.45523,5.91074 0,3.27365 -2.45523,5.91074 -2.45523,2.63706 -6.092616,2.63706 -3.637384,0 -6.092614,-2.63706 Q 60,642.71405 60,639.4404 q 0,-3.27365 2.45523,-5.91074 2.45523,-2.63706 6.092614,-2.63706 z"
                 fill="#000000"
                 id="path71" />
              <line
                 stroke="#000000"
                 stroke-width="5"
                 x1="2.9085059"
                 x2="2.9085059"
                 y1="635"
                 y2="925"
                 id="line71" />
              <line
                 stroke="#000000"
                 stroke-width="7.5"
                 x1="-10"
                 x2="68.17012"
                 y1="800"
                 y2="800"
                 id="line72" />
              <line
                 stroke="#000000"
                 stroke-width="7.5"
                 x1="-10"
                 x2="68.17012"
                 y1="750"
                 y2="750"
                 id="line73" />
              <line
                 stroke="#000000"
                 stroke-width="7.5"
                 x1="-10"
                 x2="68.17012"
                 y1="700"
                 y2="700"
                 id="line74" />
              <line
                 stroke="#000000"
                 stroke-width="7.5"
                 x1="-10"
                 x2="68.17012"
                 y1="650"
                 y2="650"
                 id="line75" />
            </g>
          </g>
          <g
             transform="translate(146.19932)"
             id="g81">
            <g
               id="g80">
              <path
                 d="m 22.141579,428.19586 q -9.401232,0 -15.3749307,-4.40683 -5.9736986,-4.40683 -5.9736986,-13.41635 0,-9.9888 5.5819807,-17.92108 5.5819806,-7.93228 14.5914946,-12.53497 9.009512,-4.6027 19.194181,-4.6027 8.617794,0 13.710129,4.6027 5.092331,4.60269 5.092331,13.02462 0,9.59708 -5.092331,17.62729 -5.092335,8.03021 -13.41634,12.82876 -8.324009,4.79856 -18.312816,4.79856 z"
                 fill="#000000"
                 id="path76" />
              <path
                 d="m 22.141579,378.19586 q -9.401232,0 -15.3749307,-4.40683 -5.9736986,-4.40683 -5.9736986,-13.41635 0,-9.9888 5.5819807,-17.92108 5.5819806,-7.93228 14.5914946,-12.53497 9.009512,-4.6027 19.194181,-4.6027 8.617794,0 13.710129,4.6027 5.092331,4.60269 5.092331,13.02462 0,9.59708 -5.092331,17.62729 -5.092335,8.03021 -13.41634,12.82876 -8.324009,4.79856 -18.312816,4.79856 z"
                 fill="#000000"
                 id="path77" />
              <path
                 d="m 22.141579,228.19586 q -9.401232,0 -15.3749307,-4.40683 -5.9736986,-4.40683 -5.9736986,-13.41633 0,-9.98882 5.5819807,-17.9211 5.5819806,-7.9323 14.5914946,-12.53497 9.009512,-4.6027 19.194181,-4.6027 8.617794,0 13.710129,4.6027 5.092331,4.60267 5.092331,13.02461 0,9.59709 -5.092331,17.6273 -5.092335,8.03023 -13.41634,12.82877 -8.324009,4.79855 -18.312816,4.79855 z"
                 fill="#000000"
                 id="path78" />
              <path
                 d="m 22.141579,178.19586 q -9.401232,0 -15.3749307,-4.40683 -5.9736986,-4.40683 -5.9736986,-13.41633 0,-9.98882 5.5819807,-17.9211 5.5819806,-7.9323 14.5914946,-12.53497 9.009512,-4.6027 19.194181,-4.6027 8.617794,0 13.710129,4.6027 5.092331,4.60267 5.092331,13.02461 0,9.59709 -5.092331,17.6273 -5.092335,8.03023 -13.41634,12.82877 -8.324009,4.79855 -18.312816,4.79855 z"
                 fill="#000000"
                 id="path79" />
              <line
                 stroke="#000000"
                 stroke-width="5"
                 x1="56.425014"
                 x2="56.425014"
                 y1="395"
                 y2="0"
                 id="line79" />
              <line
                 stroke="#000000"
                 stroke-width="7.5"
                 x1="-10"
                 x2="68.17012"
                 y1="350"
                 y2="350"
                 id="line80" />
            </g>
          </g>
          <g
             transform="translate(224.87956)"
             id="g86">
            <g
               id="g85">
              <path
                 d="m 22.141579,428.19586 q -9.401232,0 -15.3749307,-4.40683 -5.9736986,-4.40683 -5.9736986,-13.41635 0,-9.9888 5.5819807,-17.92108 5.5819806,-7.93228 14.5914946,-12.53497 9.009512,-4.6027 19.194181,-4.6027 8.617794,0 13.710129,4.6027 5.092331,4.60269 5.092331,13.02462 0,9.59708 -5.092331,17.62729 -5.092335,8.03021 -13.41634,12.82876 -8.324009,4.79856 -18.312816,4.79856 z"
                 fill="#000000"
                 id="path81" />
              <path
                 d="m 22.141579,378.19586 q -9.401232,0 -15.3749307,-4.40683 -5.9736986,-4.40683 -5.9736986,-13.41635 0,-9.9888 5.5819807,-17.92108 5.5819806,-7.93228 14.5914946,-12.53497 9.009512,-4.6027 19.194181,-4.6027 8.617794,0 13.710129,4.6027 5.092331,4.60269 5.092331,13.02462 0,9.59708 -5.092331,17.62729 -5.092335,8.03021 -13.41634,12.82876 -8.324009,4.79856 -18.312816,4.79856 z"
                 fill="#000000"
                 id="path82" />
              <path
                 d="m 22.141579,228.19586 q -9.401232,0 -15.3749307,-4.40683 -5.9736986,-4.40683 -5.9736986,-13.41633 0,-9.98882 5.5819807,-17.9211 5.5819806,-7.9323 14.5914946,-12.53497 9.009512,-4.6027 19.194181,-4.6027 8.617794,0 13.710129,4.6027 5.092331,4.60267 5.092331,13.02461 0,9.59709 -5.092331,17.6273 -5.092335,8.03023 -13.41634,12.82877 -8.324009,4.79855 -18.312816,4.79855 z"
                 fill="#000000"
                 id="path83" />
              <path
                 d="m 22.141579,178.19586 q -9.401232,0 -15.3749307,-4.40683 -5.9736986,-4.40683 -5.9736986,-13.41633 0,-9.98882 5.5819807,-17.9211 5.5819806,-7.9323 14.5914946,-12.53497 9.009512,-4.6027 19.194181,-4.6027 8.617794,0 13.710129,4.6027 5.092331,4.60267 5.092331,13.02461 0,9.59709 -5.092331,17.6273 -5.092335,8.03023 -13.41634,12.82877 -8.324009,4.79855 -18.312816,4.79855 z"
                 fill="#000000"
                 id="path84" />
              <line
                 stroke="#000000"
                 stroke-width="5"
                 x1="56.425014"
                 x2="56.425014"
                 y1="395"
                 y2="0"
                 id="line84" />
              <line
                 stroke="#000000"
                 stroke-width="7.5"
                 x1="-10"
                 x2="68.17012"
                 y1="350"
                 y2="350"
                 id="line85" />
            </g>
          </g>
          <g
             transform="translate(303.5598)"
             id="g91">
            <g
               id="g90">
              <path
                 d="m 22.141579,428.19586 q -9.401232,0 -15.3749307,-4.40683 -5.9736986,-4.40683 -5.9736986,-13.41635 0,-9.9888 5.5819807,-17.92108 5.5819806,-7.93228 14.5914946,-12.53497 9.009512,-4.6027 19.194181,-4.6027 8.617794,0 13.710129,4.6027 5.092331,4.60269 5.092331,13.02462 0,9.59708 -5.092331,17.62729 -5.092335,8.03021 -13.41634,12.82876 -8.324009,4.79856 -18.312816,4.79856 z"
                 fill="#000000"
                 id="path86" />
              <path
                 d="m 22.141579,378.19586 q -9.401232,0 -15.3749307,-4.40683 -5.9736986,-4.40683 -5.9736986,-13.41635 0,-9.9888 5.5819807,-17.92108 5.5819806,-7.93228 14.5914946,-12.53497 9.009512,-4.6027 19.194181,-4.6027 8.617794,0 13.710129,4.6027 5.092331,4.60269 5.092331,13.02462 0,9.59708 -5.092331,17.62729 -5.092335,8.03021 -13.41634,12.82876 -8.324009,4.79856 -18.312816,4.79856 z"
                 fill="#000000"
                 id="path87" />
              <path
                 d="m 22.141579,228.19586 q -9.401232,0 -15.3749307,-4.40683 -5.9736986,-4.40683 -5.9736986,-13.41633 0,-9.98882 5.5819807,-17.9211 5.5819806,-7.9323 14.5914946,-12.53497 9.009512,-4.6027 19.194181,-4.6027 8.617794,0 13.710129,4.6027 5.092331,4.60267 5.092331,13.02461 0,9.59709 -5.092331,17.6273 -5.092335,8.03023 -13.41634,12.82877 -8.324009,4.79855 -18.312816,4.79855 z"
                 fill="#000000"
                 id="path88" />
              <path
                 d="m 22.141579,178.19586 q -9.401232,0 -15.3749307,-4.40683 -5.9736986,-4.40683 -5.9736986,-13.41633 0,-9.98882 5.5819807,-17.9211 5.5819806,-7.9323 14.5914946,-12.53497 9.009512,-4.6027 19.194181,-4.6027 8.617794,0 13.710129,4.6027 5.092331,4.60267 5.092331,13.02461 0,9.59709 -5.092331,17.6273 -5.092335,8.03023 -13.41634,12.82877 -8.324009,4.79855 -18.312816,4.79855 z"
                 fill="#000000"
                 id="path89" />
              <line
                 stroke="#000000"
                 stroke-width="5"
                 x1="56.425014"
                 x2="56.425014"
                 y1="395"
                 y2="0"
                 id="line89" />
              <line
                 stroke="#000000"
                 stroke-width="7.5"
                 x1="-10"
                 x2="68.17012"
                 y1="350"
                 y2="350"
                 id="line90" />
            </g>
          </g>
          <g
             transform="translate(382.24004)"
             id="g96">
            <g
               id="g95">
              <path
                 d="m 22.141579,428.19586 q -9.401232,0 -15.3749307,-4.40683 -5.9736986,-4.40683 -5.9736986,-13.41635 0,-9.9888 5.5819807,-17.92108 5.5819806,-7.93228 14.5914946,-12.53497 9.009512,-4.6027 19.194181,-4.6027 8.617794,0 13.710129,4.6027 5.092331,4.60269 5.092331,13.02462 0,9.59708 -5.092331,17.62729 -5.092335,8.03021 -13.41634,12.82876 -8.324009,4.79856 -18.312816,4.79856 z"
                 fill="#000000"
                 id="path91" />
              <path
                 d="m 22.141579,378.19586 q -9.401232,0 -15.3749307,-4.40683 -5.9736986,-4.40683 -5.9736986,-13.41635 0,-9.9888 5.5819807,-17.92108 5.5819806,-7.93228 14.5914946,-12.53497 9.009512,-4.6027 19.194181,-4.6027 8.617794,0 13.710129,4.6027 5.092331,4.60269 5.092331,13.02462 0,9.59708 -5.092331,17.62729 -5.092335,8.03021 -13.41634,12.82876 -8.324009,4.79856 -18.312816,4.79856 z"
                 fill="#000000"
                 id="path92" />
              <path
                 d="m 22.141579,228.19586 q -9.401232,0 -15.3749307,-4.40683 -5.9736986,-4.40683 -5.9736986,-13.41633 0,-9.98882 5.5819807,-17.9211 5.5819806,-7.9323 14.5914946,-12.53497 9.009512,-4.6027 19.194181,-4.6027 8.617794,0 13.710129,4.6027 5.092331,4.60267 5.092331,13.02461 0,9.59709 -5.092331,17.6273 -5.092335,8.03023 -13.41634,12.82877 -8.324009,4.79855 -18.312816,4.79855 z"
                 fill="#000000"
                 id="path93" />
              <path
                 d="m 77.81169,203.19586 q -9.40123,0 -15.374926,-4.40683 -5.973698,-4.40683 -5.973698,-13.41633 0,-9.98882 5.581982,-17.9211 5.581982,-7.9323 14.591492,-12.53497 9.00952,-4.6027 19.19418,-4.6027 8.6178,0 13.71013,4.6027 5.09233,4.60267 5.09233,13.02461 0,9.59709 -5.09233,17.6273 -5.09233,8.03023 -13.41634,12.82877 -8.324,4.79855 -18.31282,4.79855 z"
                 fill="#000000"
                 id="path94" />
              <line
                 stroke="#000000"
                 stroke-width="5"
                 x1="56.425014"
                 x2="56.425014"
                 y1="395"
                 y2="25"
                 id="line94" />
              <line
                 stroke="#000000"
                 stroke-width="7.5"
                 x1="-10"
                 x2="68.17012"
                 y1="350"
                 y2="350"
                 id="line95" />
            </g>
          </g>
          <g
             transform="translate(516.59039)"
             id="g101">
            <g
               id="g100">
              <path
                 d="m 22.141579,428.19586 q -9.401232,0 -15.3749307,-4.40683 -5.9736986,-4.40683 -5.9736986,-13.41635 0,-9.9888 5.5819807,-17.92108 5.5819806,-7.93228 14.5914946,-12.53497 9.009512,-4.6027 19.194181,-4.6027 8.617794,0 13.710129,4.6027 5.092331,4.60269 5.092331,13.02462 0,9.59708 -5.092331,17.62729 -5.092335,8.03021 -13.41634,12.82876 -8.324009,4.79856 -18.312816,4.79856 z"
                 fill="#000000"
                 id="path96" />
              <path
                 d="m 22.141579,378.19586 q -9.401232,0 -15.3749307,-4.40683 -5.9736986,-4.40683 -5.9736986,-13.41635 0,-9.9888 5.5819807,-17.92108 5.5819806,-7.93228 14.5914946,-12.53497 9.009512,-4.6027 19.194181,-4.6027 8.617794,0 13.710129,4.6027 5.092331,4.60269 5.092331,13.02462 0,9.59708 -5.092331,17.62729 -5.092335,8.03021 -13.41634,12.82876 -8.324009,4.79856 -18.312816,4.79856 z"
                 fill="#000000"
                 id="path97" />
              <path
                 d="m 22.141579,228.19586 q -9.401232,0 -15.3749307,-4.40683 -5.9736986,-4.40683 -5.9736986,-13.41633 0,-9.98882 5.5819807,-17.9211 5.5819806,-7.9323 14.5914946,-12.53497 9.009512,-4.6027 19.194181,-4.6027 8.617794,0 13.710129,4.6027 5.092331,4.60267 5.092331,13.02461 0,9.59709 -5.092331,17.6273 -5.092335,8.03023 -13.41634,12.82877 -8.324009,4.79855 -18.312816,4.79855 z"
                 fill="#000000"
                 id="path98" />
              <path
                 d="m 77.81169,203.19586 q -9.40123,0 -15.374926,-4.40683 -5.973698,-4.40683 -5.973698,-13.41633 0,-9.98882 5.581982,-17.9211 5.581982,-7.9323 14.591492,-12.53497 9.00952,-4.6027 19.19418,-4.6027 8.6178,0 13.71013,4.6027 5.09233,4.60267 5.09233,13.02461 0,9.59709 -5.09233,17.6273 -5.09233,8.03023 -13.41634,12.82877 -8.324,4.79855 -18.31282,4.79855 z"
                 fill="#000000"
                 id="path99" />
              <line
                 stroke="#000000"
                 stroke-width="5"
                 x1="56.425014"
                 x2="56.425014"
                 y1="395"
                 y2="25"
                 id="line99" />
              <line
                 stroke="#000000"
                 stroke-width="7.5"
                 x1="-10"
                 x2="68.17012"
                 y1="350"
                 y2="350"
                 id="line100" />
            </g>
          </g>
          <g
             transform="translate(650.94075)"
             id="g102">
            <line
               stroke="#000000"
               stroke-width="8"
               x1="0"
               x2="0"
               y1="0"
               y2="600"
               id="line101" />
          </g>
          <g
             id="g103">
            <line
               stroke="#000000"
               stroke-width="22.5"
               x1="121.44409"
               x2="575.51538"
               y1="0"
               y2="25"
               id="line102" />
          </g>
        </g>
        <g
           transform="translate(2119.7638)"
           id="g146">
          <g
             transform="translate(20.510123)"
             id="g116">
            <g
               id="g110">
              <path
                 d="M 0.6944599,323.35815 H 5.465025 v 60.01679 q 5.693899,-5.69391 12.926693,-5.69391 4.924454,0 8.925573,3.30862 4.001118,3.30863 4.001118,9.61808 0,4.92444 -2.923893,9.07947 -2.923896,4.155 -7.848351,8.31 l -10.618354,9.07946 q -2.9238943,2.46222 -5.2322324,4.8475 -2.3083382,2.38529 -4.0011187,4.53974 z m 4.7705651,92.79517 q 4.00112,-4.3089 6.771124,-7.92529 2.770006,-3.6164 4.308897,-6.38639 1.692781,-2.92392 2.539173,-5.38614 0.84639,-2.4622 0.84639,-4.61666 0,-4.3089 -2.000559,-6.23252 -2.000561,-1.92362 -4.308897,-1.92362 -2.462229,0 -4.84751,1.76972 -2.385283,1.76975 -3.308618,4.84751 z"
                 fill="#000000"
                 id="path104" />
              <path
                 d="m 67.765526,428.19586 q -9.40123,0 -15.374932,-4.40683 -5.973697,-4.40683 -5.973697,-13.41635 0,-9.9888 5.581983,-17.92108 5.581976,-7.93228 14.59149,-12.53497 9.009514,-4.6027 19.19418,-4.6027 8.61779,0 13.71013,4.6027 5.09233,4.60269 5.09233,13.02462 0,9.59708 -5.09233,17.62729 -5.09234,8.03021 -13.41634,12.82876 -8.32401,4.79856 -18.312814,4.79856 z"
                 fill="#000000"
                 id="path105" />
              <path
                 d="m 67.765526,378.19586 q -9.40123,0 -15.374932,-4.40683 -5.973697,-4.40683 -5.973697,-13.41635 0,-9.9888 5.581983,-17.92108 5.581976,-7.93228 14.59149,-12.53497 9.009514,-4.6027 19.19418,-4.6027 8.61779,0 13.71013,4.6027 5.09233,4.60269 5.09233,13.02462 0,9.59708 -5.09233,17.62729 -5.09234,8.03021 -13.41634,12.82876 -8.32401,4.79856 -18.312814,4.79856 z"
                 fill="#000000"
                 id="path106" />
              <path
                 d="m 123.43565,353.19586 q -9.40123,0 -15.37493,-4.40683 -5.9737,-4.40683 -5.9737,-13.41635 0,-9.9888 5.58198,-17.92108 5.58198,-7.93228 14.59149,-12.53497 9.00951,-4.6027 19.19419,-4.6027 8.61778,0 13.71012,4.6027 5.09234,4.60269 5.09234,13.02462 0,9.59708 -5.09234,17.62729 -5.09234,8.03021 -13.41634,12.82876 -8.32401,4.79856 -18.31281,4.79856 z"
                 fill="#000000"
                 id="path107" />
              <path
                 d="m 67.765526,203.19586 q -9.40123,0 -15.374932,-4.40683 -5.973697,-4.40683 -5.973697,-13.41633 0,-9.98882 5.581983,-17.9211 5.581976,-7.9323 14.59149,-12.53497 9.009514,-4.6027 19.19418,-4.6027 8.61779,0 13.71013,4.6027 5.09233,4.60267 5.09233,13.02461 0,9.59709 -5.09233,17.6273 -5.09234,8.03023 -13.41634,12.82877 -8.32401,4.79855 -18.312814,4.79855 z"
                 fill="#000000"
                 id="path108" />
              <line
                 stroke="#000000"
                 stroke-width="5"
                 x1="102.04897"
                 x2="102.04897"
                 y1="395"
                 y2="25"
                 id="line108" />
              <line
                 stroke="#000000"
                 stroke-width="7.5"
                 x1="35.623947"
                 x2="171.96419"
                 y1="350"
                 y2="350"
                 id="line109" />
              <line
                 stroke="#000000"
                 stroke-width="7.5"
                 x1="35.623947"
                 x2="113.79407"
                 y1="350"
                 y2="350"
                 id="line110" />
            </g>
            <g
               transform="translate(45.623949)"
               id="g115">
              <path
                 d="m 22.141579,753.19586 q -9.401232,0 -15.3749307,-4.4068 -5.9736986,-4.40686 -5.9736986,-13.41636 0,-9.9888 5.5819807,-17.9211 5.5819806,-7.9323 14.5914946,-12.535 9.009512,-4.60264 19.194181,-4.60264 8.617794,0 13.710129,4.60264 5.092331,4.6027 5.092331,13.0246 0,9.5971 -5.092331,17.62734 -5.092335,8.03021 -13.41634,12.8288 -8.324009,4.79852 -18.312816,4.79852 z M 6.0811415,740.0733 q 0,1.9586 1.4689435,3.52545 1.468941,1.5669 4.015108,1.5669 6.855065,0 17.039734,-5.67995 6.855063,-3.91716 12.437043,-8.7157 5.58198,-4.79856 8.911586,-9.5971 3.329601,-4.7985 3.329601,-8.12816 0,-2.15444 -1.077224,-3.62334 -1.077225,-1.46895 -3.819249,-1.46895 -3.721321,0 -9.009514,2.35028 -5.288192,2.35037 -11.066032,6.07167 -5.777841,3.7213 -10.870174,8.1281 -5.092335,4.40686 -8.226078,8.5199 -3.1337445,4.11304 -3.1337445,7.0509 z"
                 fill="#000000"
                 id="path110" />
              <path
                 d="m 68.547844,730.8926 q 3.637386,0 6.092616,2.63706 2.45523,2.63709 2.45523,5.91074 0,3.27365 -2.45523,5.91074 -2.45523,2.63706 -6.092616,2.63706 -3.637384,0 -6.092614,-2.63706 Q 60,742.71405 60,739.4404 q 0,-3.27365 2.45523,-5.91074 2.45523,-2.63706 6.092614,-2.63706 z"
                 fill="#000000"
                 id="path111" />
              <path
                 d="m 22.141579,578.19586 q -9.401232,0 -15.3749307,-4.4068 -5.9736986,-4.40686 -5.9736986,-13.41636 0,-9.9888 5.5819807,-17.9211 5.5819806,-7.9323 14.5914946,-12.535 9.009512,-4.60264 19.194181,-4.60264 8.617794,0 13.710129,4.60264 5.092331,4.6027 5.092331,13.0246 0,9.5971 -5.092331,17.62734 -5.092335,8.03021 -13.41634,12.8288 -8.324009,4.79852 -18.312816,4.79852 z M 6.0811415,565.0733 q 0,1.9586 1.4689435,3.52545 1.468941,1.5669 4.015108,1.5669 6.855065,0 17.039734,-5.67995 6.855063,-3.91716 12.437043,-8.7157 5.58198,-4.79856 8.911586,-9.5971 3.329601,-4.7985 3.329601,-8.12816 0,-2.15444 -1.077224,-3.62334 -1.077225,-1.46895 -3.819249,-1.46895 -3.721321,0 -9.009514,2.35028 -5.288192,2.35037 -11.066032,6.07167 -5.777841,3.7213 -10.870174,8.1281 -5.092335,4.40686 -8.226078,8.5199 -3.1337445,4.11304 -3.1337445,7.0509 z"
                 fill="#000000"
                 id="path112" />
              <path
                 d="m 68.547844,555.8926 q 3.637386,0 6.092616,2.63706 2.45523,2.63709 2.45523,5.91074 0,3.27365 -2.45523,5.91074 -2.45523,2.63706 -6.092616,2.63706 -3.637384,0 -6.092614,-2.63706 Q 60,567.71405 60,564.4404 q 0,-3.27365 2.45523,-5.91074 2.45523,-2.63706 6.092614,-2.63706 z"
                 fill="#000000"
                 id="path113" />
              <line
                 stroke="#000000"
                 stroke-width="5"
                 x1="2.9085059"
                 x2="2.9085059"
                 y1="560"
                 y2="850"
                 id="line113" />
              <line
                 stroke="#000000"
                 stroke-width="7.5"
                 x1="-10"
                 x2="68.17012"
                 y1="700"
                 y2="700"
                 id="line114" />
              <line
                 stroke="#000000"
                 stroke-width="7.5"
                 x1="-10"
                 x2="68.17012"
                 y1="650"
                 y2="650"
                 id="line115" />
            </g>
          </g>
          <g
             transform="translate(200.48443)"
             id="g122">
            <g
               id="g121">
              <path
                 d="m 22.141579,428.19586 q -9.401232,0 -15.3749307,-4.40683 -5.9736986,-4.40683 -5.9736986,-13.41635 0,-9.9888 5.5819807,-17.92108 5.5819806,-7.93228 14.5914946,-12.53497 9.009512,-4.6027 19.194181,-4.6027 8.617794,0 13.710129,4.6027 5.092331,4.60269 5.092331,13.02462 0,9.59708 -5.092331,17.62729 -5.092335,8.03021 -13.41634,12.82876 -8.324009,4.79856 -18.312816,4.79856 z"
                 fill="#000000"
                 id="path116" />
              <path
                 d="m 22.141579,378.19586 q -9.401232,0 -15.3749307,-4.40683 -5.9736986,-4.40683 -5.9736986,-13.41635 0,-9.9888 5.5819807,-17.92108 5.5819806,-7.93228 14.5914946,-12.53497 9.009512,-4.6027 19.194181,-4.6027 8.617794,0 13.710129,4.6027 5.092331,4.60269 5.092331,13.02462 0,9.59708 -5.092331,17.62729 -5.092335,8.03021 -13.41634,12.82876 -8.324009,4.79856 -18.312816,4.79856 z"
                 fill="#000000"
                 id="path117" />
              <path
                 d="m 77.81169,353.19586 q -9.40123,0 -15.374926,-4.40683 -5.973698,-4.40683 -5.973698,-13.41635 0,-9.9888 5.581982,-17.92108 5.581982,-7.93228 14.591492,-12.53497 9.00952,-4.6027 19.19418,-4.6027 8.6178,0 13.71013,4.6027 5.09233,4.60269 5.09233,13.02462 0,9.59708 -5.09233,17.62729 -5.09233,8.03021 -13.41634,12.82876 -8.324,4.79856 -18.31282,4.79856 z"
                 fill="#000000"
                 id="path118" />
              <path
                 d="m 22.141579,203.19586 q -9.401232,0 -15.3749307,-4.40683 -5.9736986,-4.40683 -5.9736986,-13.41633 0,-9.98882 5.5819807,-17.9211 5.5819806,-7.9323 14.5914946,-12.53497 9.009512,-4.6027 19.194181,-4.6027 8.617794,0 13.710129,4.6027 5.092331,4.60267 5.092331,13.02461 0,9.59709 -5.092331,17.6273 -5.092335,8.03023 -13.41634,12.82877 -8.324009,4.79855 -18.312816,4.79855 z"
                 fill="#000000"
                 id="path119" />
              <line
                 stroke="#000000"
                 stroke-width="5"
                 x1="56.425014"
                 x2="56.425014"
                 y1="395"
                 y2="25"
                 id="line119" />
              <line
                 stroke="#000000"
                 stroke-width="7.5"
                 x1="-10"
                 x2="126.34023"
                 y1="350"
                 y2="350"
                 id="line120" />
              <line
                 stroke="#000000"
                 stroke-width="7.5"
                 x1="-10"
                 x2="68.17012"
                 y1="350"
                 y2="350"
                 id="line121" />
            </g>
          </g>
          <g
             transform="translate(334.83478)"
             id="g128">
            <g
               id="g127">
              <path
                 d="m 22.141579,428.19586 q -9.401232,0 -15.3749307,-4.40683 -5.9736986,-4.40683 -5.9736986,-13.41635 0,-9.9888 5.5819807,-17.92108 5.5819806,-7.93228 14.5914946,-12.53497 9.009512,-4.6027 19.194181,-4.6027 8.617794,0 13.710129,4.6027 5.092331,4.60269 5.092331,13.02462 0,9.59708 -5.092331,17.62729 -5.092335,8.03021 -13.41634,12.82876 -8.324009,4.79856 -18.312816,4.79856 z"
                 fill="#000000"
                 id="path122" />
              <path
                 d="m 22.141579,378.19586 q -9.401232,0 -15.3749307,-4.40683 -5.9736986,-4.40683 -5.9736986,-13.41635 0,-9.9888 5.5819807,-17.92108 5.5819806,-7.93228 14.5914946,-12.53497 9.009512,-4.6027 19.194181,-4.6027 8.617794,0 13.710129,4.6027 5.092331,4.60269 5.092331,13.02462 0,9.59708 -5.092331,17.62729 -5.092335,8.03021 -13.41634,12.82876 -8.324009,4.79856 -18.312816,4.79856 z"
                 fill="#000000"
                 id="path123" />
              <path
                 d="m 77.81169,353.19586 q -9.40123,0 -15.374926,-4.40683 -5.973698,-4.40683 -5.973698,-13.41635 0,-9.9888 5.581982,-17.92108 5.581982,-7.93228 14.591492,-12.53497 9.00952,-4.6027 19.19418,-4.6027 8.6178,0 13.71013,4.6027 5.09233,4.60269 5.09233,13.02462 0,9.59708 -5.09233,17.62729 -5.09233,8.03021 -13.41634,12.82876 -8.324,4.79856 -18.31282,4.79856 z"
                 fill="#000000"
                 id="path124" />
              <path
                 d="m 22.141579,203.19586 q -9.401232,0 -15.3749307,-4.40683 -5.9736986,-4.40683 -5.9736986,-13.41633 0,-9.98882 5.5819807,-17.9211 5.5819806,-7.9323 14.5914946,-12.53497 9.009512,-4.6027 19.194181,-4.6027 8.617794,0 13.710129,4.6027 5.092331,4.60267 5.092331,13.02461 0,9.59709 -5.092331,17.6273 -5.092335,8.03023 -13.41634,12.82877 -8.324009,4.79855 -18.312816,4.79855 z"
                 fill="#000000"
                 id="path125" />
              <line
                 stroke="#000000"
                 stroke-width="5"
                 x1="56.425014"
                 x2="56.425014"
                 y1="395"
                 y2="25"
                 id="line125" />
              <line
                 stroke="#000000"
                 stroke-width="7.5"
                 x1="-10"
                 x2="126.34023"
                 y1="350"
                 y2="350"
                 id="line126" />
              <line
                 stroke="#000000"
                 stroke-width="7.5"
                 x1="-10"
                 x2="68.17012"
                 y1="350"
                 y2="350"
                 id="line127" />
            </g>
          </g>
          <g
             transform="translate(469.18514)"
             id="g134">
            <g
               id="g133">
              <path
                 d="m 22.141579,428.19586 q -9.401232,0 -15.3749307,-4.40683 -5.9736986,-4.40683 -5.9736986,-13.41635 0,-9.9888 5.5819807,-17.92108 5.5819806,-7.93228 14.5914946,-12.53497 9.009512,-4.6027 19.194181,-4.6027 8.617794,0 13.710129,4.6027 5.092331,4.60269 5.092331,13.02462 0,9.59708 -5.092331,17.62729 -5.092335,8.03021 -13.41634,12.82876 -8.324009,4.79856 -18.312816,4.79856 z"
                 fill="#000000"
                 id="path128" />
              <path
                 d="m 22.141579,378.19586 q -9.401232,0 -15.3749307,-4.40683 -5.9736986,-4.40683 -5.9736986,-13.41635 0,-9.9888 5.5819807,-17.92108 5.5819806,-7.93228 14.5914946,-12.53497 9.009512,-4.6027 19.194181,-4.6027 8.617794,0 13.710129,4.6027 5.092331,4.60269 5.092331,13.02462 0,9.59708 -5.092331,17.62729 -5.092335,8.03021 -13.41634,12.82876 -8.324009,4.79856 -18.312816,4.79856 z"
                 fill="#000000"
                 id="path129" />
              <path
                 d="m 77.81169,353.19586 q -9.40123,0 -15.374926,-4.40683 -5.973698,-4.40683 -5.973698,-13.41635 0,-9.9888 5.581982,-17.92108 5.581982,-7.93228 14.591492,-12.53497 9.00952,-4.6027 19.19418,-4.6027 8.6178,0 13.71013,4.6027 5.09233,4.60269 5.09233,13.02462 0,9.59708 -5.09233,17.62729 -5.09233,8.03021 -13.41634,12.82876 -8.324,4.79856 -18.31282,4.79856 z"
                 fill="#000000"
                 id="path130" />
              <path
                 d="m 22.141579,203.19586 q -9.401232,0 -15.3749307,-4.40683 -5.9736986,-4.40683 -5.9736986,-13.41633 0,-9.98882 5.5819807,-17.9211 5.5819806,-7.9323 14.5914946,-12.53497 9.009512,-4.6027 19.194181,-4.6027 8.617794,0 13.710129,4.6027 5.092331,4.60267 5.092331,13.02461 0,9.59709 -5.092331,17.6273 -5.092335,8.03023 -13.41634,12.82877 -8.324009,4.79855 -18.312816,4.79855 z"
                 fill="#000000"
                 id="path131" />
              <line
                 stroke="#000000"
                 stroke-width="5"
                 x1="56.425014"
                 x2="56.425014"
                 y1="395"
                 y2="25"
                 id="line131" />
              <line
                 stroke="#000000"
                 stroke-width="7.5"
                 x1="-10"
                 x2="126.34023"
                 y1="350"
                 y2="350"
                 id="line132" />
              <line
                 stroke="#000000"
                 stroke-width="7.5"
                 x1="-10"
                 x2="68.17012"
                 y1="350"
                 y2="350"
                 id="line133" />
            </g>
          </g>
          <g
             transform="translate(603.53549)"
             id="g139">
            <g
               id="g138">
              <path
                 d="m 22.141579,453.19586 q -9.401232,0 -15.3749307,-4.40683 -5.9736986,-4.40683 -5.9736986,-13.41635 0,-9.9888 5.5819807,-17.92108 5.5819806,-7.93228 14.5914946,-12.53497 9.009512,-4.6027 19.194181,-4.6027 8.617794,0 13.710129,4.6027 5.092331,4.60269 5.092331,13.02462 0,9.59708 -5.092331,17.62729 -5.092335,8.03021 -13.41634,12.82876 -8.324009,4.79856 -18.312816,4.79856 z"
                 fill="#000000"
                 id="path134" />
              <path
                 d="m 22.141579,403.19586 q -9.401232,0 -15.3749307,-4.40683 -5.9736986,-4.40683 -5.9736986,-13.41635 0,-9.9888 5.5819807,-17.92108 5.5819806,-7.93228 14.5914946,-12.53497 9.009512,-4.6027 19.194181,-4.6027 8.617794,0 13.710129,4.6027 5.092331,4.60269 5.092331,13.02462 0,9.59708 -5.092331,17.62729 -5.092335,8.03021 -13.41634,12.82876 -8.324009,4.79856 -18.312816,4.79856 z"
                 fill="#000000"
                 id="path135" />
              <path
                 d="m 77.81169,378.19586 q -9.40123,0 -15.374926,-4.40683 -5.973698,-4.40683 -5.973698,-13.41635 0,-9.9888 5.581982,-17.92108 5.581982,-7.93228 14.591492,-12.53497 9.00952,-4.6027 19.19418,-4.6027 8.6178,0 13.71013,4.6027 5.09233,4.60269 5.09233,13.02462 0,9.59708 -5.09233,17.62729 -5.09233,8.03021 -13.41634,12.82876 -8.324,4.79856 -18.31282,4.79856 z"
                 fill="#000000"
                 id="path136" />
              <path
                 d="m 22.141579,203.19586 q -9.401232,0 -15.3749307,-4.40683 -5.9736986,-4.40683 -5.9736986,-13.41633 0,-9.98882 5.5819807,-17.9211 5.5819806,-7.9323 14.5914946,-12.53497 9.009512,-4.6027 19.194181,-4.6027 8.617794,0 13.710129,4.6027 5.092331,4.60267 5.092331,13.02461 0,9.59709 -5.092331,17.6273 -5.092335,8.03023 -13.41634,12.82877 -8.324009,4.79855 -18.312816,4.79855 z"
                 fill="#000000"
                 id="path137" />
              <line
                 stroke="#000000"
                 stroke-width="5"
                 x1="56.425014"
                 x2="56.425014"
                 y1="420"
                 y2="25"
                 id="line137" />
              <line
                 stroke="#000000"
                 stroke-width="7.5"
                 x1="-10"
                 x2="126.34023"
                 y1="350"
                 y2="350"
                 id="line138" />
            </g>
          </g>
          <g
             transform="translate(737.88585)"
             id="g143">
            <g
               id="g142">
              <path
                 d="m 22.141579,478.19586 q -9.401232,0 -15.3749307,-4.40683 -5.9736986,-4.40683 -5.9736986,-13.41635 0,-9.9888 5.5819807,-17.92108 5.5819806,-7.93228 14.5914946,-12.53497 9.009512,-4.6027 19.194181,-4.6027 8.617794,0 13.710129,4.6027 5.092331,4.60269 5.092331,13.02462 0,9.59708 -5.092331,17.62729 -5.092335,8.03021 -13.41634,12.82876 -8.324009,4.79856 -18.312816,4.79856 z"
                 fill="#000000"
                 id="path139" />
              <path
                 d="m 22.141579,428.19586 q -9.401232,0 -15.3749307,-4.40683 -5.9736986,-4.40683 -5.9736986,-13.41635 0,-9.9888 5.5819807,-17.92108 5.5819806,-7.93228 14.5914946,-12.53497 9.009512,-4.6027 19.194181,-4.6027 8.617794,0 13.710129,4.6027 5.092331,4.60269 5.092331,13.02462 0,9.59708 -5.092331,17.62729 -5.092335,8.03021 -13.41634,12.82876 -8.324009,4.79856 -18.312816,4.79856 z"
                 fill="#000000"
                 id="path140" />
              <path
                 d="m 77.81169,403.19586 q -9.40123,0 -15.374926,-4.40683 -5.973698,-4.40683 -5.973698,-13.41635 0,-9.9888 5.581982,-17.92108 5.581982,-7.93228 14.591492,-12.53497 9.00952,-4.6027 19.19418,-4.6027 8.6178,0 13.71013,4.6027 5.09233,4.60269 5.09233,13.02462 0,9.59708 -5.09233,17.62729 -5.09233,8.03021 -13.41634,12.82876 -8.324,4.79856 -18.31282,4.79856 z"
                 fill="#000000"
                 id="path141" />
              <path
                 d="m 22.141579,203.19586 q -9.401232,0 -15.3749307,-4.40683 -5.9736986,-4.40683 -5.9736986,-13.41633 0,-9.98882 5.5819807,-17.9211 5.5819806,-7.9323 14.5914946,-12.53497 9.009512,-4.6027 19.194181,-4.6027 8.617794,0 13.710129,4.6027 5.092331,4.60267 5.092331,13.02461 0,9.59709 -5.092331,17.6273 -5.092335,8.03023 -13.41634,12.82877 -8.324009,4.79855 -18.312816,4.79855 z"
                 fill="#000000"
                 id="path142" />
              <line
                 stroke="#000000"
                 stroke-width="5"
                 x1="56.425014"
                 x2="56.425014"
                 y1="445"
                 y2="25"
                 id="line142" />
            </g>
          </g>
          <g
             transform="translate(872.2362)"
             id="g144">
            <line
               stroke="#000000"
               stroke-width="8"
               x1="0"
               x2="0"
               y1="0"
               y2="600"
               id="line143" />
          </g>
          <g
             id="g145">
            <line
               stroke="#000000"
               stroke-width="22.5"
               x1="120.05908"
               x2="796.81085"
               y1="25"
               y2="25"
               id="line144" />
          </g>
        </g>
        <g
           id="g156">
          <g
             id="g150">
            <line
               stroke="#000000"
               stroke-width="5"
               x1="0"
               x2="2995"
               y1="0"
               y2="0"
               id="line146" />
            <line
               stroke="#000000"
               stroke-width="5"
               x1="0"
               x2="2995"
               y1="50"
               y2="50"
               id="line147" />
            <line
               stroke="#000000"
               stroke-width="5"
               x1="0"
               x2="2995"
               y1="100"
               y2="100"
               id="line148" />
            <line
               stroke="#000000"
               stroke-width="5"
               x1="0"
               x2="2995"
               y1="150"
               y2="150"
               id="line149" />
            <line
               stroke="#000000"
               stroke-width="5"
               x1="0"
               x2="2995"
               y1="200"
               y2="200"
               id="line150" />
          </g>
          <g
             transform="translate(0,400)"
             id="g155">
            <line
               stroke="#000000"
               stroke-width="5"
               x1="0"
               x2="2995"
               y1="0"
               y2="0"
               id="line151" />
            <line
               stroke="#000000"
               stroke-width="5"
               x1="0"
               x2="2995"
               y1="50"
               y2="50"
               id="line152" />
            <line
               stroke="#000000"
               stroke-width="5"
               x1="0"
               x2="2995"
               y1="100"
               y2="100"
               id="line153" />
            <line
               stroke="#000000"
               stroke-width="5"
               x1="0"
               x2="2995"
               y1="150"
               y2="150"
               id="line154" />
            <line
               stroke="#000000"
               stroke-width="5"
               x1="0"
               x2="2995"
               y1="200"
               y2="200"
               id="line155" />
          </g>
        </g>
      </g>
      <rect
         fill="#cccccc"
         height="32.342381"
         width="93.822632"
         x="6.8729329"
         y="67.191498"
         id="rect1-2"
         style="stroke-width:0.0302644"
         clip-path="url(#clipPath3-5)"
         transform="matrix(0.03651706,0,0,0.60778512,46.100259,32.612704)" />
      <rect
         fill="#cccccc"
         height="32.342381"
         width="93.822632"
         x="6.8729329"
         y="67.191498"
         id="rect5"
         style="stroke-width:0.0302644"
         clip-path="url(#clipPath3-5)"
         transform="matrix(0.02680643,0,0,0.66428192,87.773503,27.849415)" />
    </g>
  </g>
</svg>
